<svg xmlns="http://www.w3.org/2000/svg" width="500" height="500" style="width:100%;height:100%;transform:translate3d(0,0,0);content-visibility:visible" viewBox="0 0 500 500"><defs><clipPath id="b"><path d="M0 0h500v500H0z"/></clipPath><mask id="c" mask-type="alpha"><use xmlns:ns1="http://www.w3.org/1999/xlink" ns1:href="#a"/></mask><g id="a" style="display:block"><path fill="#EBE6EF" d="M410.215 349.143c-72.49 70.267-188.219 68.466-258.487-4.025-70.267-72.49-68.465-188.219 4.025-258.486 72.49-70.268 188.22-68.466 258.487 4.024 70.267 72.49 68.465 188.22-4.025 258.487z"/><path fill-opacity="0" stroke="#121331" stroke-linecap="round" stroke-linejoin="round" stroke-width="6.23" d="M410.215 349.143c-72.49 70.267-188.219 68.466-258.487-4.025-70.267-72.49-68.465-188.219 4.025-258.486 72.49-70.268 188.22-68.466 258.487 4.024 70.267 72.49 68.465 188.22-4.025 258.487z"/></g></defs><g clip-path="url(#b)"><g style="display:block"><path d="M378.843 383.272c-72.49 70.267-188.22 68.465-258.487-4.025-70.267-72.49-68.465-188.22 4.025-258.487 72.49-70.267 188.22-68.465 258.487 4.025 70.267 72.49 68.465 188.22-4.025 258.487z"/><path fill-opacity=".5" d="M205.393 0c0 113.435-91.958 205.393-205.393 205.393S-205.393 113.435-205.393 0-113.435-205.393 0-205.393 205.393-113.435 205.393 0z" style="mix-blend-mode:multiply" transform="rotate(45.892 -171.83 423.167) scale(.89)"/></g><g mask="url(#c)" style="display:block"><path d="M378.843 383.272c-72.49 70.267-188.22 68.465-258.487-4.025-70.267-72.49-68.465-188.22 4.025-258.487 72.49-70.267 188.22-68.465 258.487 4.025 70.267 72.49 68.465 188.22-4.025 258.487z"/></g><path fill="none" stroke="#FFF" stroke-width="7" d="M205.393 0c0 113.435-91.958 205.393-205.393 205.393S-205.393 113.435-205.393 0-113.435-205.393 0-205.393 205.393-113.435 205.393 0z" style="display:block" transform="rotate(45.892 -171.83 423.167) scale(.89)"/><path fill="none" stroke="#FFF" stroke-linecap="round" stroke-linejoin="round" stroke-width="10" d="M33.062-57.719-33.062 0l66.124 57.719" style="display:block" transform="translate(146.38 250)"/><path fill="none" stroke="#FFF" stroke-linecap="round" stroke-linejoin="round" stroke-width="10" d="M-33.062-57.719 33.062 0l-66.124 57.719" style="display:block" transform="translate(353.071 250)"/><path fill="none" stroke="#FFF" stroke-linecap="round" stroke-linejoin="round" stroke-width="16" d="M-.109 0h.218" style="display:block" transform="translate(199.179 252.984)"/><path fill="none" stroke="#FFF" stroke-linecap="round" stroke-linejoin="round" stroke-width="16" d="M249.891 251h.218" style="display:block"/><path fill="none" stroke="#FFF" stroke-linecap="round" stroke-linejoin="round" stroke-width="16" d="M-.109 0h.218" style="display:block" transform="translate(300.821 251)"/><path style="display:none"/></g></svg>